<svg xmlns="http://www.w3.org/2000/svg" width="136" height="41" viewBox="0 0 136 41"><g><g><g><g><path fill="#161616" d="M104.462 9.584h-4.012a1.338 1.338 0 0 0-1.336 1.338v27.879c0 .736.6 1.338 1.336 1.338l4.01-.002c.736.002 1.338-.6 1.338-1.336l-.001-27.88c0-.736-.602-1.34-1.335-1.337"/></g></g><g><path fill="#161616" d="M57.822 15.186c.03.085.05.171.08.257h.001c.034.083.071.164.102.25 2.554 7.067-1.173 14.919-8.308 17.493-7.137 2.58-15.02-1.073-17.575-8.143-.031-.085-.052-.173-.08-.258h-.003c-.031-.084-.07-.163-.1-.249-2.555-7.068 1.173-14.918 8.308-17.495 7.138-2.579 15.02 1.074 17.575 8.145zM26.05 26.665c.03.085.07.166.101.248l-.003.002c.03.087.054.171.084.256 3.724 10.303 15.172 15.607 25.572 11.85 10.4-3.758 15.812-15.156 12.089-25.456-.03-.086-.07-.166-.102-.25l.005-.002c-.03-.086-.056-.171-.086-.254-3.723-10.303-15.172-15.61-25.572-11.85C27.74 4.964 22.328 16.361 26.05 26.664z"/></g><g><g><path fill="#161616" d="M132.197 34.078c-7.522-.077-13.62-6.214-13.62-13.753 0-7.54 6.098-13.677 13.62-13.754V.308c-10.992.075-19.881 9.006-19.881 20.017 0 11.01 8.89 19.941 19.88 20.018z"/></g></g><g><g><path fill="#161616" d="M20.134 34.078C12.612 34 6.514 27.864 6.514 20.325c0-7.54 6.098-13.677 13.62-13.754V.308C9.143.383.253 9.314.253 20.325c0 11.01 8.89 19.941 19.881 20.018z"/></g></g><g><path fill="#161616" d="M131.216 16.613a3.359 3.359 0 1 1 2.343 6.296 3.359 3.359 0 0 1-2.343-6.296z"/></g><g><path fill="#161616" d="M100.847.551a3.36 3.36 0 0 1 3.177 5.921 3.36 3.36 0 0 1-3.177-5.92z"/></g><g><g><path fill="#161616" d="M71.5 33.866c7.52-.075 13.619-6.214 13.619-13.753 0-7.537-6.099-13.675-13.62-13.752V.096c10.99.077 19.88 9.009 19.88 20.017 0 11.012-8.89 19.944-19.88 20.02z"/></g></g><g><path fill="#161616" d="M71.5 16.02v6.828a3.419 3.419 0 0 0 3.306-3.416c0-1.851-1.47-3.35-3.307-3.412z"/></g></g></g></svg>